<svg viewBox="0 0 64 64" fill="none" xmlns="http://www.w3.org/2000/svg">
  <!-- Cactus - Simple round/oval with spines -->
  <ellipse cx="32" cy="32" rx="16" ry="20" stroke="currentColor" stroke-width="1.5"/>
  <path d="M32 12L32 8" stroke="currentColor" stroke-width="1.5" stroke-linecap="round"/>
  <path d="M28 14L26 10" stroke="currentColor" stroke-width="1.5" stroke-linecap="round"/>
  <path d="M36 14L38 10" stroke="currentColor" stroke-width="1.5" stroke-linecap="round"/>
  <path d="M20 24L16 22" stroke="currentColor" stroke-width="1.5" stroke-linecap="round"/>
  <path d="M44 24L48 22" stroke="currentColor" stroke-width="1.5" stroke-linecap="round"/>
  <path d="M18 32L14 32" stroke="currentColor" stroke-width="1.5" stroke-linecap="round"/>
  <path d="M46 32L50 32" stroke="currentColor" stroke-width="1.5" stroke-linecap="round"/>
  <path d="M20 40L16 42" stroke="currentColor" stroke-width="1.5" stroke-linecap="round"/>
  <path d="M44 40L48 42" stroke="currentColor" stroke-width="1.5" stroke-linecap="round"/>
  <path d="M28 50L26 54" stroke="currentColor" stroke-width="1.5" stroke-linecap="round"/>
  <path d="M36 50L38 54" stroke="currentColor" stroke-width="1.5" stroke-linecap="round"/>
  <path d="M32 52L32 56" stroke="currentColor" stroke-width="1.5" stroke-linecap="round"/>
  <!-- Ribs -->
  <path d="M24 16L24 48" stroke="currentColor" stroke-width="1.5" stroke-linecap="round" stroke-opacity="0.5"/>
  <path d="M32 12L32 52" stroke="currentColor" stroke-width="1.5" stroke-linecap="round" stroke-opacity="0.5"/>
  <path d="M40 16L40 48" stroke="currentColor" stroke-width="1.5" stroke-linecap="round" stroke-opacity="0.5"/>
</svg>
