<svg viewBox="0 0 64 64" fill="none" xmlns="http://www.w3.org/2000/svg">
  <!-- Calathea - Striped oval leaves -->
  <ellipse cx="32" cy="24" rx="12" ry="16" stroke="currentColor" stroke-width="1.5"/>
  <path d="M32 8L32 40" stroke="currentColor" stroke-width="1.5" stroke-linecap="round"/>
  <path d="M24 16L32 20" stroke="currentColor" stroke-width="1.5" stroke-linecap="round"/>
  <path d="M40 16L32 20" stroke="currentColor" stroke-width="1.5" stroke-linecap="round"/>
  <path d="M22 24L32 28" stroke="currentColor" stroke-width="1.5" stroke-linecap="round"/>
  <path d="M42 24L32 28" stroke="currentColor" stroke-width="1.5" stroke-linecap="round"/>
  <path d="M24 32L32 36" stroke="currentColor" stroke-width="1.5" stroke-linecap="round"/>
  <path d="M40 32L32 36" stroke="currentColor" stroke-width="1.5" stroke-linecap="round"/>
  <ellipse cx="18" cy="46" rx="8" ry="10" stroke="currentColor" stroke-width="1.5"/>
  <path d="M18 36L18 56" stroke="currentColor" stroke-width="1.5" stroke-linecap="round"/>
  <path d="M12 42L18 46" stroke="currentColor" stroke-width="1.5" stroke-linecap="round"/>
  <path d="M24 42L18 46" stroke="currentColor" stroke-width="1.5" stroke-linecap="round"/>
  <ellipse cx="46" cy="46" rx="8" ry="10" stroke="currentColor" stroke-width="1.5"/>
  <path d="M46 36L46 56" stroke="currentColor" stroke-width="1.5" stroke-linecap="round"/>
  <path d="M40 42L46 46" stroke="currentColor" stroke-width="1.5" stroke-linecap="round"/>
  <path d="M52 42L46 46" stroke="currentColor" stroke-width="1.5" stroke-linecap="round"/>
</svg>
