<svg viewBox="0 0 64 64" fill="none" xmlns="http://www.w3.org/2000/svg">
  <!-- Monstera Deliciosa - Large split leaves radiating from center with distinctive holes -->
  <path d="M32 28C32 28 28 16 18 14C8 12 8 28 14 34C20 40 32 38 32 38" stroke="currentColor" stroke-width="1.5" stroke-linecap="round" stroke-linejoin="round"/>
  <path d="M32 28C32 28 36 16 46 14C56 12 56 28 50 34C44 40 32 38 32 38" stroke="currentColor" stroke-width="1.5" stroke-linecap="round" stroke-linejoin="round"/>
  <path d="M32 38C32 38 18 40 14 50C10 60 26 58 32 52C38 58 54 60 50 50C46 40 32 38 32 38" stroke="currentColor" stroke-width="1.5" stroke-linecap="round" stroke-linejoin="round"/>
  <circle cx="22" cy="24" r="2.5" stroke="currentColor" stroke-width="1.5"/>
  <circle cx="42" cy="24" r="2.5" stroke="currentColor" stroke-width="1.5"/>
  <circle cx="22" cy="46" r="2" stroke="currentColor" stroke-width="1.5"/>
  <circle cx="42" cy="46" r="2" stroke="currentColor" stroke-width="1.5"/>
  <path d="M32 28L32 38" stroke="currentColor" stroke-width="1.5" stroke-linecap="round"/>
</svg>
