<svg viewBox="0 0 64 64" fill="none" xmlns="http://www.w3.org/2000/svg">
  <!-- Spider Plant - Long arching fronds radiating outward -->
  <path d="M32 32C32 32 32 20 32 8" stroke="currentColor" stroke-width="1.5" stroke-linecap="round"/>
  <path d="M32 32C32 32 20 24 8 20" stroke="currentColor" stroke-width="1.5" stroke-linecap="round"/>
  <path d="M32 32C32 32 44 24 56 20" stroke="currentColor" stroke-width="1.5" stroke-linecap="round"/>
  <path d="M32 32C32 32 16 32 6 36" stroke="currentColor" stroke-width="1.5" stroke-linecap="round"/>
  <path d="M32 32C32 32 48 32 58 36" stroke="currentColor" stroke-width="1.5" stroke-linecap="round"/>
  <path d="M32 32C32 32 20 40 12 52" stroke="currentColor" stroke-width="1.5" stroke-linecap="round"/>
  <path d="M32 32C32 32 44 40 52 52" stroke="currentColor" stroke-width="1.5" stroke-linecap="round"/>
  <path d="M32 32C32 32 26 44 24 56" stroke="currentColor" stroke-width="1.5" stroke-linecap="round"/>
  <path d="M32 32C32 32 38 44 40 56" stroke="currentColor" stroke-width="1.5" stroke-linecap="round"/>
  <circle cx="32" cy="32" r="4" stroke="currentColor" stroke-width="1.5"/>
</svg>
